<svg width="24" height="26" viewBox="0 0 24 26" fill="none" xmlns="http://www.w3.org/2000/svg">
<rect x="0.5" y="1.17188" width="23" height="24.2404" rx="11.5" stroke="white"/>
<path fill-rule="evenodd" clip-rule="evenodd" d="M6.75 9.77075C6.75 8.66618 7.64543 7.77075 8.75 7.77075H15.25C16.3546 7.77075 17.25 8.66618 17.25 9.77075V16.8134C17.25 17.918 16.3546 18.8134 15.25 18.8134H8.75C7.64543 18.8134 6.75 17.918 6.75 16.8134V9.77075ZM12 11.3155C11.0065 11.3155 10.15 12.1716 10.15 13.2921C10.15 14.4126 11.0065 15.2687 12 15.2687C12.9936 15.2687 13.85 14.4126 13.85 13.2921C13.85 12.1716 12.9936 11.3155 12 11.3155ZM8.95005 13.2921C8.95005 11.5665 10.2874 10.1155 12 10.1155C13.7126 10.1155 15.05 11.5665 15.05 13.2921C15.05 15.0176 13.7126 16.4687 12 16.4687C10.2874 16.4687 8.95005 15.0176 8.95005 13.2921ZM15.15 10.7155C15.5366 10.7155 15.85 10.3859 15.85 9.97929C15.85 9.57271 15.5366 9.24311 15.15 9.24311C14.7634 9.24311 14.45 9.57271 14.45 9.97929C14.45 10.3859 14.7634 10.7155 15.15 10.7155Z" fill="white"/>
</svg>
